/* XPM */
static char *_849ca1013454fbc81c102bf340d7448[] = {
/* columns rows colors chars-per-pixel */
"16 16 95 2 ",
"   c None",
".  c #0E0000",
"X  c #1D0000",
"o  c #220000",
"O  c #240000",
"+  c #250000",
"@  c #270000",
"#  c #290000",
"$  c #310101",
"%  c #340101",
"&  c #350101",
"*  c #370101",
"=  c #3A0101",
"-  c #400101",
";  c #430101",
":  c #440101",
">  c #450101",
",  c #460101",
"<  c #480101",
"1  c #490101",
"2  c #4A0101",
"3  c #4F0101",
"4  c #500101",
"5  c #510101",
"6  c #530101",
"7  c #550101",
"8  c #560101",
"9  c #570101",
"0  c #580101",
"q  c #590101",
"w  c #5A0101",
"e  c #5C0101",
"r  c #5D0101",
"t  c #5E0101",
"y  c #5F0101",
"u  c #600101",
"i  c #610101",
"p  c #620101",
"a  c #630101",
"s  c #640101",
"d  c #650101",
"f  c #660101",
"g  c #670101",
"h  c #680101",
"j  c #6A0101",
"k  c #6C0101",
"l  c #6E0101",
"z  c #700101",
"x  c #710101",
"c  c #720101",
"v  c #730101",
"b  c #750101",
"n  c #760101",
"m  c #790101",
"M  c #7A0101",
"N  c #7B0101",
"B  c #7C0101",
"V  c #7D0101",
"C  c #7E0101",
"Z  c #800101",
"A  c #810202",
"S  c #820202",
"D  c #850202",
"F  c #860202",
"G  c #870202",
"H  c #880202",
"J  c #890202",
"K  c #8B0202",
"L  c #8C0202",
"P  c #8F0202",
"I  c #900202",
"U  c #910202",
"Y  c #920202",
"T  c #940202",
"R  c #950202",
"E  c #960202",
"W  c #980202",
"Q  c #9A0202",
"!  c #9B0202",
"~  c #9C0202",
"^  c #9D0202",
"/  c #9E0202",
"(  c #9F0202",
")  c #A00202",
"_  c #A20202",
"`  c #A60202",
"'  c #A70202",
"]  c #A80202",
"[  c #A90202",
"{  c #AA0202",
"}  c #AB0202",
"|  c #AC0202",
" . c #AD0202",
".. c #AE0202",
"X. c #AF0202",
/* pixels */
"          , a c c a ,           ",
"        C ^ { { { { ^ C         ",
"    5 H b ^ { { { ..I C I 7     ",
"    R ) + d ....{ { = , ..R ,   ",
"  N ....7 $ ` { ..I X C { ..C   ",
", ^ { N l X H ....d # h e h I 1 ",
"a { ^ 1 e * 7 ..` * * e ^ C S h ",
"c ..b d 7 0 # ) G o 5 C X...{ b ",
"c { 3 a 5 0 + C 7 - N a { L H b ",
"d R h { ^ d 1 = # b { d e 0 I h ",
", ! ` ....` G . + ) ..{ ^ ` ) 1 ",
"  N { ^ ^ ^ R 0 h ^ ! ^ ) { C   ",
"    H S C G S G C b N C L L ,   ",
"    5 I ..{ { { { { { { R 5     ",
"        N ! { { ..{ ^ N         ",
"          - a l l a ,           "
};
