/* XPM */
static char *accd7eb06b0d4385802c0c275be62369[] = {
/* columns rows colors chars-per-pixel */
"32 32 162 2 ",
"   c None",
".  c black",
"X  c #010000",
"o  c #020000",
"O  c #030000",
"+  c #040000",
"@  c #050000",
"#  c #070000",
"$  c #080000",
"%  c #090000",
"&  c #0A0000",
"*  c #0B0000",
"=  c #0D0000",
"-  c #0E0000",
";  c #0F0000",
":  c #100000",
">  c #110000",
",  c #120000",
"<  c #130000",
"1  c #140000",
"2  c #150000",
"3  c #160000",
"4  c #170000",
"5  c #180000",
"6  c #190000",
"7  c #1B0000",
"8  c #1C0000",
"9  c #1D0000",
"0  c #1F0000",
"q  c #200000",
"w  c #210000",
"e  c #230000",
"r  c #250000",
"t  c #260000",
"y  c #270000",
"u  c #280000",
"i  c #290000",
"p  c #2A0000",
"a  c #2B0000",
"s  c #2B0101",
"d  c #2C0000",
"f  c #2C0101",
"g  c #2D0101",
"h  c #2E0101",
"j  c #2F0101",
"k  c #300101",
"l  c #310101",
"z  c #320101",
"x  c #330101",
"c  c #340101",
"v  c #350101",
"b  c #360101",
"n  c #380101",
"m  c #390101",
"M  c #3B0101",
"N  c #3C0101",
"B  c #3D0101",
"V  c #3F0101",
"C  c #400101",
"Z  c #410101",
"A  c #420101",
"S  c #450101",
"D  c #480101",
"F  c #4A0101",
"G  c #4B0101",
"H  c #4C0101",
"J  c #4D0101",
"K  c #4E0101",
"L  c #4F0101",
"P  c #500101",
"I  c #510101",
"U  c #520101",
"Y  c #540101",
"T  c #550101",
"R  c #560101",
"E  c #570101",
"W  c #580101",
"Q  c #590101",
"!  c #5A0101",
"~  c #5B0101",
"^  c #5C0101",
"/  c #5D0101",
"(  c #5F0101",
")  c #600101",
"_  c #610101",
"`  c #620101",
"'  c #630101",
"]  c #640101",
"[  c #650101",
"{  c #660101",
"}  c #670101",
"|  c #680101",
" . c #690101",
".. c #6A0101",
"X. c #6B0101",
"o. c #6C0101",
"O. c #6D0101",
"+. c #6E0101",
"@. c #6F0101",
"#. c #700101",
"$. c #710101",
"%. c #720101",
"&. c #730101",
"*. c #740101",
"=. c #750101",
"-. c #760101",
";. c #770101",
":. c #780101",
">. c #790101",
",. c #7A0101",
"<. c #7B0101",
"1. c #7C0101",
"2. c #7D0101",
"3. c #7F0101",
"4. c #810101",
"5. c #810202",
"6. c #830202",
"7. c #840202",
"8. c #850202",
"9. c #860202",
"0. c #870202",
"q. c #880202",
"w. c #890202",
"e. c #8A0202",
"r. c #8B0202",
"t. c #8C0202",
"y. c #8D0202",
"u. c #8E0202",
"i. c #8F0202",
"p. c #900202",
"a. c #910202",
"s. c #920202",
"d. c #930202",
"f. c #940202",
"g. c #950202",
"h. c #960202",
"j. c #970202",
"k. c #980202",
"l. c #990202",
"z. c #9A0202",
"x. c #9B0202",
"c. c #9C0202",
"v. c #9D0202",
"b. c #9E0202",
"n. c #9F0202",
"m. c #A00202",
"M. c #A10202",
"N. c #A20202",
"B. c #A30202",
"V. c #A40202",
"C. c #A50202",
"Z. c #A60202",
"A. c #A70202",
"S. c #A80202",
"D. c #A90202",
"F. c #AA0202",
"G. c #AB0202",
"H. c #AC0202",
"J. c #AD0202",
"K. c #AE0202",
"L. c #AF0202",
"P. c #B00202",
/* pixels */
"                          2 e h i e 2                           ",
"                    r J @.e.j.c.c.j.e.%.J i                     ",
"                i  .j.K.K.K.S.K.K.K.K.K.S.x.@.h                 ",
"            > T x.K.S.S.S.K.K.S.S.S.K.S.K.S.K.c.Q 2             ",
"          9 %.S.S.S.K.K.S.K.S.K.S.K.S.K.S.S.S.S.S.>.e           ",
"        9 1.K.e.N m 7.K.K.S.K.S.K.S.K.S.S.Q b ^ S.K.1.e         ",
"      > *.K.K.j.6 o F S.S.K.S.K.S.K.S.K.t.= o ' K.K.K.>.2       ",
"      Q S.S.K.S.J o 9 x.K.S.K.S.K.S.K.K.^ o > p.K.S.S.K.^       ",
"    h x.S.K.S.K.5.* o %.K.K.S.K.K.S.K.N.i o S S.S.K.S.K.c.l     ",
"     .K.K.S.K.K.C.h o m S.S.K.S.S.S.K.5.* @ >.P.K.K.K.K.K.%.    ",
"  i x.S.S.K.C.j.C.[ o > p.K.K.S.K.S.S.J o r N.p.@.' *.c.K.c.h   ",
"  I S.K.K.K.1.2 ^ j.2 o ' K.S.K.S.K.x.6 o Q %.e l C i l t.K.Q   ",
"  *.K.K.S.K.F r i x.F o h N.K.S.K.P.%.o 2  .9 [ S.S.N.C m S.>.* ",
"6 e.K.S.S.j.r 1.i @.1.* * 7.K.S.S.S.m o N F l C.K.S.K.p.@.C.p.9 ",
"r x.S.K.K.[ l S.Q b c.i o I K.S.K.p.> o @.l I K.S.K.S.K.K.K.c.h ",
"h c.K.S.C.l Q C.5.6 e.' o 9 c.K.K.^ o e x.l T K.K.S.K.S.K.S.N.l ",
"h c.S.K.7.> r l h * J p.2 o >.K.N.h o I K.N C K.S.K.K.c.t.S.N.l ",
"r j.K.K.J b t.e.t.' 9 j.C o C S.5.* = e.K.@.6 t.K.K.P.^ h C.c.i ",
"2 t.K.x.e @.K.K.K.x.9 [ 1.@ 2 j.I o b C.K.N.C r [ *.T 6 @.K.p.9 ",
"  %.P.7.C x.K.S.K.S.^ T c.r o T e o @.K.S.K.N.[ m l C >.C.K.>.= ",
"  J K.C.S.K.S.K.S.K.S.C.K.Q o = o 6 x.S.S.K.S.K.S.C.S.K.S.K.T   ",
"  i x.K.S.K.K.S.K.S.K.S.K.t.> o o J K.K.K.S.K.S.S.K.K.S.K.c.h   ",
"     .K.S.S.K.S.K.S.K.S.S.S.S > 6 7.P.S.K.S.K.K.K.K.S.K.K.@.    ",
"    i j.K.C.x.x.x.x.x.x.x.c.j.7.p.x.x.x.x.x.N.c.x.x.C.K.c.l     ",
"      T S.t.%.T T [ ^ %.[ [ [ *.%.T I I T ' T ^ 1. .N.S.^       ",
"      > %.N.t.t.t.j.c.c.j.e.p.t.e.e.e.e.7.t.t.e.p.j.S.*.2       ",
"        9 >.K.K.K.K.K.K.K.K.S.K.K.S.K.K.K.S.K.K.K.P.5.e         ",
"          6 @.S.S.K.S.S.S.K.K.S.S.K.S.K.S.K.S.S.S.*.9           ",
"            > I j.K.S.K.S.K.K.S.K.K.S.K.K.S.K.x.T >             ",
"                i [ j.S.K.K.S.K.S.K.K.K.S.x. .h                 ",
"                    e F @.7.p.x.x.p.7.@.J r                     ",
"                          2 e i r e 2                           "
};
