/* XPM */
static char *e4228c2a10d74d8df765177b62c0dc31[] = {
/* columns rows colors chars-per-pixel */
"64 64 185 2 ",
"   c None",
".  c black",
"X  c #010000",
"o  c #020000",
"O  c #030000",
"+  c #040000",
"@  c #050000",
"#  c #060000",
"$  c #070000",
"%  c #080000",
"&  c #090000",
"*  c #0A0000",
"=  c #0B0000",
"-  c #0C0000",
";  c #0D0000",
":  c #0E0000",
">  c #0F0000",
",  c #100000",
"<  c #110000",
"1  c #120000",
"2  c #130000",
"3  c #140000",
"4  c #150000",
"5  c #160000",
"6  c #170000",
"7  c #180000",
"8  c #190000",
"9  c #1A0000",
"0  c #1B0000",
"q  c #1C0000",
"w  c #1D0000",
"e  c #1E0000",
"r  c #1F0000",
"t  c #200000",
"y  c #210000",
"u  c #220000",
"i  c #230000",
"p  c #240000",
"a  c #250000",
"s  c #260000",
"d  c #270000",
"f  c #280000",
"g  c #290000",
"h  c #290101",
"j  c #2A0000",
"k  c #2B0000",
"l  c #2B0101",
"z  c #2C0000",
"x  c #2D0000",
"c  c #2C0101",
"v  c #2D0101",
"b  c #2E0101",
"n  c #2F0101",
"m  c #300000",
"M  c #300101",
"N  c #310101",
"B  c #320101",
"V  c #330101",
"C  c #340101",
"Z  c #350101",
"A  c #360101",
"S  c #370101",
"D  c #380101",
"F  c #390101",
"G  c #3A0101",
"H  c #3B0101",
"J  c #3C0101",
"K  c #3D0101",
"L  c #3E0101",
"P  c #3F0101",
"I  c #400101",
"U  c #410101",
"Y  c #420101",
"T  c #430101",
"R  c #440101",
"E  c #450101",
"W  c #460101",
"Q  c #470101",
"!  c #480101",
"~  c #490101",
"^  c #4A0101",
"/  c #4B0101",
"(  c #4C0101",
")  c #4D0101",
"_  c #4E0101",
"`  c #4F0101",
"'  c #500101",
"]  c #510101",
"[  c #520101",
"{  c #530101",
"}  c #540101",
"|  c #550101",
" . c #560101",
".. c #570101",
"X. c #580101",
"o. c #590101",
"O. c #5A0101",
"+. c #5B0101",
"@. c #5C0101",
"#. c #5D0101",
"$. c #5E0101",
"%. c #5F0101",
"&. c #600101",
"*. c #610101",
"=. c #620101",
"-. c #630101",
";. c #640101",
":. c #650101",
">. c #660101",
",. c #670101",
"<. c #680101",
"1. c #690101",
"2. c #6A0101",
"3. c #6B0101",
"4. c #6C0101",
"5. c #6D0101",
"6. c #6E0101",
"7. c #6F0101",
"8. c #700101",
"9. c #710101",
"0. c #720101",
"q. c #730101",
"w. c #740101",
"e. c #750101",
"r. c #760101",
"t. c #770101",
"y. c #780101",
"u. c #790101",
"i. c #7B0101",
"p. c #7C0101",
"a. c #7D0101",
"s. c #7E0101",
"d. c #7F0101",
"f. c #7D0202",
"g. c #7F0202",
"h. c #800101",
"j. c #810101",
"k. c #820101",
"l. c #820202",
"z. c #830202",
"x. c #840202",
"c. c #850202",
"v. c #860202",
"b. c #870202",
"n. c #880202",
"m. c #890202",
"M. c #8A0202",
"N. c #8B0202",
"B. c #8C0202",
"V. c #8D0202",
"C. c #8E0202",
"Z. c #8F0202",
"A. c #900202",
"S. c #910202",
"D. c #920202",
"F. c #930202",
"G. c #940202",
"H. c #950202",
"J. c #960202",
"K. c #970202",
"L. c #980202",
"P. c #990202",
"I. c #9A0202",
"U. c #9B0202",
"Y. c #9C0202",
"T. c #9D0202",
"R. c #9E0202",
"E. c #9F0202",
"W. c #A00202",
"Q. c #A10202",
"!. c #A20202",
"~. c #A30202",
"^. c #A40202",
"/. c #A50202",
"(. c #A60202",
"). c #A70202",
"_. c #A80202",
"`. c #A90202",
"'. c #AA0202",
"]. c #AB0202",
"[. c #AC0202",
"{. c #AD0202",
"}. c #AE0202",
"|. c #AF0202",
" X c #B00202",
/* pixels */
"                                                          . . . . . .                                                           ",
"                                                . . @ & 4 t k v v k t 7 > . . .                                                 ",
"                                          . . 4 V  .0.c.G.R.^.^.^.^.R.G.M.0.o.S 4 @ . .                                         ",
"                                    . . 2 H 6.F.^.{.{.{.{.].{.].{.{.{.].{. X{.^.F.0.T 2 . .                                     ",
"                                . . 7  .M.].{.].].].].].].].].].].].].].].].].].{.{.].F.o.w . .                                 ",
"                              . 4 [ G.{.{.].].].].].].].].].].].].].].].].].].].].].].{.{.I.#.4 .                               ",
"                          . @ H M.].{.].].].].].].].].].].].].].].].].].].].].].].].].].{.].{.F.Q & .                           ",
"                        . 2 :.^.{.].].].].].].].].].].].].].].].].].].].].].].].].].].].].].].{.^.6.7 .                         ",
"                      . p k.{.].{.{.].{.].].].].].].].].].].].].].].].].].].].].].].].].{.].].].].{.M.v .                       ",
"                    . V F.{.].{.{.{.{.{.].].].].].].].].].].].].].].].].].].].].].].{.{.{. X{.{.].].{.I.P .                     ",
"                  . S I.{.].].i.:.<.:.:.F.].].].].].].].].].].].].].].].].].].].].].C.<.<.:.:.f.].].].{.R.T .                   ",
"                . V I.{.].].{.o.. . . . Q ].].].].].].].].].].].].].].].].].].].].].Q . . . . #.{.].].].{.R.P .                 ",
"              . p G.{.].].].{.M.2 . . . 7 G.].].].].].].].].].].].].].].].].].].].G.7 . . . 2 F.{.].].].].{.I.V .               ",
"            . 4 c.{.].].].].{.^.H . . . @ 6.{.].].].].].].].].].].].].].].].].].{.<.. . . . T ].].].].].].].{.C.w .             ",
"            @ <.{.].].].].].].{.0.@ . . . H ^.{.].].].].].].].].].].].].].].].].].S . . . @ i.{.].].].].].].].{.r.&             ",
"          . P ^.{.].].].].].].{.I.t . . . > C.{.].].].].].].].].].].].].].].].{.M.> . . . k R.].].].].].].].].].].( .           ",
"        . 7 C.{.].].].].].].].].].[ . . . . #.{.].].].].].].].].].].].].].].{.{.o.. . . . o.{.].].].].].].].].].].G.t .         ",
"        . o.{.].].].].].].].].].{.c.> . . . v W.].].].].].].].].].].].].].].].R.k . . . 2 C.{.].].].].].].].].].{.{.<.@         ",
"      . w I.{.].].].].].].].].].].^.S . . . & k.{.].].].].].].].].].].].].].{.f.@ . . . H ].].].].].].].].].].].].{.R.k .       ",
"      . o.].].].].].].].].].].].].{.<.@ . . . ( ].].].].].].].].].].].].].].]./ . . . @ 0.].].].].].].].].].].].].].{.<..       ",
"    . 4 F.].].].].].].].].{.{.{.{.].I.w . . . t I.{.].].].].].].].].].].].].I.w . . . t R.].].{.].^.W.^.].{.{.].].].{.P.t .     ",
"    . T ].].].].].].].].].^.C.M.I.].].( . . . @ 0.{.].].].].].].].].].].{.{.6.. . . .  .{.{.W.i.( V k v P :.G.{.].].].{.[ .     ",
"    @ r.{.].].].].].].].{.i.2 > S W.{.k.& . . . P ].].].].].].].].].].].].^.H . . . > M.{.c.V @ . . . . . . 7 <.(.{.].{.k.&     ",
"    7 G.{.].].].].].].].].Q . . @ f.{.W.V . . . 2 F.{.].].].].].].].].].{.C.2 . . . H ^.k.4 . > T <.i.r.o.p . & o.].].{.W.p .   ",
"  . H ].].].].].].].].{.F.4 & t . Q ].{.:.. . . . :.{.].].].].].].].].].{.#.. . . @ 6.I.t . w i.].{.{.{.{.I.Q . > f.].].]./ .   ",
"  . o.].].].].].].].].{.:.. V 6.@ 4 F.{.G.4 . . . V W.].].].].].].].].{.W.v . . . w I. .. > f.{.].].{.].].{.R.t . P ].].{.<..   ",
"  @ i.{.].].].].].].].W.v . -.W.p . #.{.].Q . . . > c.{.].].].].].].].{.k.& . . . ( I.w . T ^.].].].].].].].{.#.w P W.{.{.c.>   ",
"  > M.{.].].].].].{.{.k.& 2 C.{. .. p R.{.f.& . . .  .{.].].].].].].].].( . . . > c.f.@ @ r.{.{.].].].].].].{.^.W.W.{.].{.G.7   ",
"  7 I.{.].].].].].].].( . H ^.{.M.> @ r.{.W.k . . . p R.{.].].].].].{.I.t . . . V ^.-.. > F.{.].].].].].].].].].].{.].].{.W.k . ",
". p W.{.].].].].].{.I.w . 6.{.].^.V . P ].{.#.. . . @ i.{.].].].].].{.0.@ . . . <. X[ . 7 I.].].].].].].].].].].].].].].].^.V . ",
". v ^.{.].].].].].{.6.. 7 I.{.].{.<.. 2 M.{.F.2 . . . Q ].].].].].].^.P . . . 7 G.{.( . w R.{.].].].].].].].].].].].].].{.^.H . ",
". S ^.{.].].].].].^.S . Q ^.^.].].F.7 .  .].].P . . . 7 G.{.].].].{.F.4 . . . / ].{. .. 7 I.].].].].].].].].].].].].].].].].P . ",
". V (.].].].].].{.m.2 . w V V V V V 2 . t R.{.i.@ . . . 6.{.].].].{.:.. . . & f.{.{.:.. > M.{.].].].].].].].].{.{.{.].].].].P . ",
". v (.].].].].].{. .. . @ @ @ @ @ @ @ . @ 6.{.R.p . . . H ^.].].{.W.v . . . v W.{.{.c.& . <.{.].].].].].].].{.M.<.i.^.].].].H . ",
". p W.{.].].].].Y.t . Q x.l.k.l.k.k.f.p . S ^.{.o.. . . > M.{.].{.c.> . . . -.{.].{.W.p . V ^.{.].].].].].].].T . v W.{.].].V . ",
"  7 P.].].].].{.r.@ > x. X{.{.{.{.{. X#.. & c. XC.2 . . . #.{.].{.[ . . . 2 F.{.].].{.:.. @ -.].{.].].].{.{.c.2 . [ {.{.].W.p . ",
"  2 M.{.].].].].T . v W.{.].].].].].{.C.2 . ( {.^.H . . . k W.{.R.p . . . T ^.{.].].{.R.S . > #.R.].{.{.^.c.k . 4 C.{.].].G.4   ",
"  @ r.{.].].{.Z.4 . -.{.].].].].].].].].P . w G. X0.@ . . & k. Xr.@ . . @ i.{.].].].].{.C.v . . t Q  .[ S > . 2 0.{.].].{.c.&   ",
"  . o.{.].].{.#.. 2 Z.{.].].].].].].].{.0.. . :.{.I.w . . . ( ].T . . . p R.{.].].].].].{.I.[ 4 . . . . . & V f.].].].].{.<..   ",
"  . H ].].].].<./ :.(.].].].].].].].].].R. ./ 6.].{.[ . . . t k.7 . . . o.{.].].].].].].].].].F.0. .( ( -.k.W.{.].].].{.{./ .   ",
"    7 I.].].].].].].].].].].].].].].].].].].{.].].{.c.> . . & v @ . . 2 M.{.].].].].].].].].].{.{.{.{.].{.{.{.].].].].{.R.t .   ",
"    . 0.{.{.].].].].].].].].].].].].].].].].].].].].^.S . . . . . . . H ].].].].].].].].].].].].].].].].].].].].].].].{.f.&     ",
"    . P ].].].].].].].].].].].].].].].].].].].].].].{.6.. . . . . . @ 0.{.].].].].].].].].].].].].].].].].].].].].].].].[ .     ",
"    . 4 C.{.].].].].].].].].].].].].].].].].].].].].{.G.w . . . . . t R.].].].].].].].].].].].].].].].].].].].].].].{.I.w .     ",
"      .  .{.].].].].].].].].].].].].].].].].].].].].].].( . . . . .  .].].].].].].].].].].].].].].].].].].].].].].].{.<..       ",
"      . w G.{.].].].].].].].].].].].].].].].].].].].].{.c.7 2 2 4 w M.{.].].].].].].].].].].].].].].].].].].].].].{.R.p .       ",
"        .  .].].].].].].].{.].{.{.].].{.{.{.].{.{.{.{.].].G.F.F.F.I.].{.{.{.{.{.].{.{.{.].{.{.].{.{.{.].].].].].].{.:.@         ",
"        . 4 M.{.].].].].C.F.I.M.F.I.R.G.C.G.G.M.M.R.C.I.].R.C.R.R.^.G.G.M.W.C.F.W.C.F.G.W.R.W.R.M.I.G.R.R.].].].{.G.w .         ",
"          . H W.{.{.{.0.[ 6.:.H T Q / 6.H T i.P #. .o.[ r.( :.r.#.I.[ Q P -.P T 6.H <.( [ -.:.[ :.f.( / M.{.].].].Q .           ",
"            @ :.{.].].o.6.I.:.V [ :. .c.S <.^. .k./ M. .( [ I.c.( f.Q T V #.S H <.S r.[ / k /  .G.W.<.[ ].].].{.0.&             ",
"            . 2 k.].].C.o.:.r.i.6.f.f.G.0.{.].0.G.k. .<.I.:.o.c.<. .f.0.i.:.6.0.6. .0.6.F.:.k.:.o.C.C.f.].].{.M.7 .             ",
"              . t F.{.{.].^.].].].].].].].].].].].].].].{.].].{.].].].].].].].].].].^.].].].].].].].].].].{.I.v .               ",
"                . v I.{.{.].].].].].].].].].].].].].].].].].].].].].].].].].].].].].].].].].].].].].].].{.R.H .                 ",
"                  . V G.{.].].].].].].].].].].].].].].].].].].].].].].].].].].].].].].].].].].].].].].{.I.P .                   ",
"                    . v C.{.].].].].].].].].].].].].].].].].].].].].].].].].].].].].].].].].].].].].{.G.S .                     ",
"                      . t f.].].].].].].].].].].].].].].].].].].].].].].].].].].].].].].].].].].].].c.k .                       ",
"                        . 2 #.W.{.].].].].].].].].].].].].].].].].].].].].].].].].].].].].].].{.^.<.4 .                         ",
"                          . . S c.].{.].].].].].].].].].].].].].].].].].].].].].].].].].].].].M.T @ .                           ",
"                              . 2 ( F.{.{.{.].].].].].].].].].].].].].].].].].].].].].{.].G. .4 .                               ",
"                                . . 4 ( c.^.{.{.{.].].].].].].].].].].].].].].].{.{.].M. .7 . .                                 ",
"                                    . . > S :.C.W.{.{.{.].].{.{.{.{.].{.{.{.{.^.F.<.P 2 . .                                     ",
"                                          . . 2 v ( <.k.F.R.R.W.W.R.I.F.k.6.( V 4 . .                                           ",
"                                                . . . & 2 7 p p p t w 2 > . . .                                                 ",
"                                                              . .                                                               "
};
